PathFileType	4	(X / Y / Z)	Demo_151852_11_September_2019	Demo_151852_11_September_2019.trc
DataRate	CameraRate	NumFrames	NumMarkers	Units	OrigDataRate	OrigDataStartFrame	OrigNumFrames
50	50	25	25	m	50	1862	2071
Frame#	Time		SpineBase		SpineMid		Neck		Head		ShoulderLeft		ElbowLeft		WristLeft		HandLeft		ShoulderRight		ElbowRight		WristRight		HandRight		HipLeft		KneeLeft		AnkleLeft		FootLeft		HipRight		KneeRight		AnkleRight		FootRight		SpineShoulder		HandTipLeft		LeftThumb		HandTipRight		ThumbRight		
X1	Y1	Z1	X2	Y2	Z2	X3	Y3	Z3	X4	Y4	Z4	X5	Y5	Z5	X6	Y6	Z6	X7	Y7	Z7	X8	Y8	Z8	X9	Y9	Z9	X10	Y10	Z10	X11	Y11	Z11	X12	Y12	Z12	X13	Y13	Z13	X14	Y14	Z14	X15	Y15	Z15	X16	Y16	Z16	X17	Y17	Z17	X18	Y18	Z18	X19	Y19	Z19	X20	Y20	Z20	X21	Y21	Z21	X22	Y22	Z22	X23	Y23	Z23	X24	Y24	Z24	X25	Y25	Z25	
1813	49.282	0.151	0.725	1.514	0.138	1.014	1.477	0.128	1.296	1.433	0.141	1.444	1.417	0.008	1.197	1.411	-0.023	1.036	1.285	0.124	1.237	1.357	0.150	1.294	1.393	0.331	1.202	1.456	0.485	0.986	1.458	0.648	0.856	1.463	0.688	0.834	1.469	0.077	0.734	1.471	-0.022	0.436	1.493	0.109	0.051	1.573	0.151	0.040	1.452	0.218	0.729	1.491	0.211	0.423	1.548	0.173	0.273	1.597	0.158	0.264	1.557	0.130	1.227	1.446	0.198	1.369	1.385	0.171	1.265	1.397	0.759	0.744	1.514	0.661	0.832	1.473
1814	49.298	0.151	0.725	1.514	0.138	1.014	1.477	0.128	1.296	1.433	0.141	1.444	1.417	0.008	1.197	1.411	-0.023	1.036	1.285	0.124	1.237	1.357	0.150	1.294	1.393	0.331	1.202	1.456	0.485	0.986	1.458	0.648	0.856	1.463	0.688	0.834	1.469	0.077	0.734	1.471	-0.022	0.436	1.493	0.109	0.051	1.573	0.151	0.040	1.452	0.218	0.729	1.491	0.211	0.423	1.548	0.173	0.273	1.597	0.158	0.264	1.557	0.130	1.227	1.446	0.198	1.369	1.385	0.171	1.265	1.397	0.759	0.744	1.514	0.661	0.832	1.473
1815	49.315	0.151	0.725	1.514	0.138	1.014	1.477	0.128	1.296	1.433	0.141	1.444	1.417	0.008	1.197	1.411	-0.023	1.036	1.285	0.124	1.237	1.357	0.150	1.294	1.393	0.331	1.202	1.456	0.485	0.986	1.458	0.648	0.856	1.463	0.688	0.834	1.469	0.077	0.734	1.471	-0.022	0.436	1.493	0.109	0.051	1.573	0.151	0.040	1.452	0.218	0.729	1.491	0.211	0.423	1.548	0.173	0.273	1.597	0.158	0.264	1.557	0.130	1.227	1.446	0.198	1.369	1.385	0.171	1.265	1.397	0.759	0.744	1.514	0.661	0.832	1.473
1816	49.332	0.151	0.725	1.514	0.138	1.014	1.477	0.128	1.296	1.433	0.141	1.444	1.417	0.008	1.197	1.411	-0.023	1.036	1.285	0.124	1.237	1.357	0.150	1.294	1.393	0.331	1.202	1.456	0.485	0.986	1.458	0.648	0.856	1.463	0.688	0.834	1.469	0.077	0.734	1.471	-0.022	0.436	1.493	0.109	0.051	1.573	0.151	0.040	1.452	0.218	0.729	1.491	0.211	0.423	1.548	0.173	0.273	1.597	0.158	0.264	1.557	0.130	1.227	1.446	0.198	1.369	1.385	0.171	1.265	1.397	0.759	0.744	1.514	0.661	0.832	1.473
1817	49.349	0.153	0.723	1.517	0.139	1.013	1.479	0.128	1.296	1.433	0.142	1.444	1.417	0.008	1.197	1.411	-0.021	1.035	1.285	0.125	1.237	1.357	0.150	1.293	1.393	0.317	1.190	1.450	0.392	0.905	1.459	0.432	0.674	1.495	0.433	0.609	1.520	0.079	0.731	1.475	-0.022	0.435	1.495	0.113	0.051	1.573	0.154	0.041	1.453	0.220	0.727	1.492	0.208	0.420	1.549	0.171	0.273	1.597	0.158	0.263	1.558	0.131	1.227	1.447	0.198	1.369	1.385	0.172	1.264	1.397	0.483	0.534	1.539	0.425	0.629	1.498
1818	49.365	0.153	0.723	1.517	0.139	1.013	1.479	0.128	1.296	1.433	0.142	1.444	1.417	0.008	1.197	1.411	-0.021	1.035	1.285	0.125	1.237	1.357	0.150	1.293	1.393	0.317	1.190	1.450	0.392	0.905	1.459	0.432	0.674	1.495	0.433	0.609	1.520	0.079	0.731	1.475	-0.022	0.435	1.495	0.113	0.051	1.573	0.154	0.041	1.453	0.220	0.727	1.492	0.208	0.420	1.549	0.171	0.273	1.597	0.158	0.263	1.558	0.131	1.227	1.447	0.198	1.369	1.385	0.172	1.264	1.397	0.483	0.534	1.539	0.425	0.629	1.498
1819	49.382	0.153	0.723	1.517	0.139	1.013	1.479	0.128	1.296	1.433	0.142	1.444	1.417	0.008	1.197	1.411	-0.021	1.035	1.285	0.125	1.237	1.357	0.150	1.293	1.393	0.317	1.190	1.450	0.392	0.905	1.459	0.432	0.674	1.495	0.433	0.609	1.520	0.079	0.731	1.475	-0.022	0.435	1.495	0.113	0.051	1.573	0.154	0.041	1.453	0.220	0.727	1.492	0.208	0.420	1.549	0.171	0.273	1.597	0.158	0.263	1.558	0.131	1.227	1.447	0.198	1.369	1.385	0.172	1.264	1.397	0.483	0.534	1.539	0.425	0.629	1.498
1820	49.399	0.153	0.723	1.517	0.139	1.013	1.479	0.128	1.296	1.433	0.142	1.444	1.417	0.008	1.197	1.411	-0.021	1.035	1.285	0.125	1.237	1.357	0.150	1.293	1.393	0.317	1.190	1.450	0.392	0.905	1.459	0.432	0.674	1.495	0.433	0.609	1.520	0.079	0.731	1.475	-0.022	0.435	1.495	0.113	0.051	1.573	0.154	0.041	1.453	0.220	0.727	1.492	0.208	0.420	1.549	0.171	0.273	1.597	0.158	0.263	1.558	0.131	1.227	1.447	0.198	1.369	1.385	0.172	1.264	1.397	0.483	0.534	1.539	0.425	0.629	1.498
1821	49.415	0.154	0.721	1.519	0.140	1.013	1.480	0.128	1.296	1.433	0.142	1.444	1.417	0.008	1.197	1.411	-0.020	1.034	1.286	0.125	1.237	1.357	0.151	1.293	1.393	0.309	1.183	1.446	0.335	0.882	1.463	0.360	0.681	1.499	0.356	0.614	1.500	0.080	0.729	1.478	-0.021	0.433	1.496	0.115	0.051	1.574	0.156	0.041	1.453	0.221	0.724	1.494	0.203	0.417	1.549	0.170	0.273	1.597	0.158	0.263	1.558	0.131	1.226	1.447	0.198	1.368	1.383	0.174	1.264	1.397	0.353	0.501	1.543	0.304	0.596	1.498
1822	49.432	0.154	0.721	1.519	0.140	1.013	1.480	0.128	1.296	1.433	0.142	1.444	1.417	0.008	1.197	1.411	-0.020	1.034	1.286	0.125	1.237	1.357	0.151	1.293	1.393	0.309	1.183	1.446	0.335	0.882	1.463	0.360	0.681	1.499	0.356	0.614	1.500	0.080	0.729	1.478	-0.021	0.433	1.496	0.115	0.051	1.574	0.156	0.041	1.453	0.221	0.724	1.494	0.203	0.417	1.549	0.170	0.273	1.597	0.158	0.263	1.558	0.131	1.226	1.447	0.198	1.368	1.383	0.174	1.264	1.397	0.353	0.501	1.543	0.304	0.596	1.498
1823	49.449	0.155	0.719	1.520	0.141	1.012	1.481	0.129	1.295	1.434	0.142	1.444	1.417	0.008	1.197	1.411	-0.018	1.033	1.287	0.126	1.237	1.357	0.152	1.292	1.393	0.304	1.179	1.444	0.331	0.886	1.456	0.347	0.651	1.493	0.331	0.584	1.511	0.081	0.728	1.481	-0.020	0.431	1.497	0.117	0.050	1.575	0.158	0.041	1.455	0.222	0.722	1.495	0.199	0.414	1.548	0.168	0.273	1.597	0.158	0.262	1.559	0.132	1.226	1.447	0.199	1.368	1.383	0.176	1.264	1.397	0.313	0.478	1.539	0.264	0.559	1.497
1824	49.465	0.155	0.719	1.520	0.141	1.012	1.481	0.129	1.295	1.434	0.142	1.444	1.417	0.008	1.197	1.411	-0.018	1.033	1.287	0.126	1.237	1.357	0.152	1.292	1.393	0.304	1.179	1.444	0.331	0.886	1.456	0.347	0.651	1.493	0.331	0.584	1.511	0.081	0.728	1.481	-0.020	0.431	1.497	0.117	0.050	1.575	0.158	0.041	1.455	0.222	0.722	1.495	0.199	0.414	1.548	0.168	0.273	1.597	0.158	0.262	1.559	0.132	1.226	1.447	0.199	1.368	1.383	0.176	1.264	1.397	0.313	0.478	1.539	0.264	0.559	1.497
1825	49.482	0.155	0.718	1.521	0.142	1.012	1.482	0.130	1.295	1.434	0.142	1.444	1.417	0.008	1.197	1.411	-0.017	1.032	1.288	0.127	1.236	1.357	0.154	1.291	1.394	0.301	1.177	1.442	0.328	0.888	1.452	0.376	0.703	1.476	0.372	0.666	1.483	0.081	0.727	1.483	-0.019	0.429	1.498	0.118	0.050	1.576	0.159	0.040	1.456	0.223	0.720	1.495	0.197	0.412	1.547	0.168	0.273	1.596	0.158	0.262	1.560	0.133	1.226	1.448	0.200	1.368	1.382	0.178	1.263	1.397	0.354	0.552	1.508	0.306	0.637	1.484
1826	49.499	0.155	0.718	1.521	0.142	1.012	1.482	0.130	1.295	1.434	0.142	1.444	1.417	0.008	1.197	1.411	-0.017	1.032	1.288	0.127	1.236	1.357	0.154	1.291	1.394	0.301	1.177	1.442	0.328	0.888	1.452	0.376	0.703	1.476	0.372	0.666	1.483	0.081	0.727	1.483	-0.019	0.429	1.498	0.118	0.050	1.576	0.159	0.040	1.456	0.223	0.720	1.495	0.197	0.412	1.547	0.168	0.273	1.596	0.158	0.262	1.560	0.133	1.226	1.448	0.200	1.368	1.382	0.178	1.263	1.397	0.354	0.552	1.508	0.306	0.637	1.484
1827	49.516	0.155	0.717	1.522	0.142	1.011	1.483	0.132	1.295	1.434	0.143	1.444	1.417	0.009	1.197	1.411	-0.015	1.031	1.289	0.128	1.236	1.358	0.155	1.291	1.394	0.299	1.175	1.440	0.335	0.894	1.448	0.404	0.717	1.467	0.419	0.679	1.471	0.080	0.726	1.484	-0.018	0.428	1.499	0.119	0.049	1.577	0.160	0.039	1.457	0.222	0.719	1.494	0.197	0.411	1.546	0.168	0.272	1.596	0.158	0.261	1.560	0.134	1.226	1.448	0.202	1.368	1.382	0.181	1.262	1.397	0.409	0.575	1.494	0.357	0.647	1.462
1828	49.532	0.155	0.717	1.522	0.142	1.011	1.483	0.132	1.295	1.434	0.143	1.444	1.417	0.009	1.197	1.411	-0.015	1.031	1.289	0.128	1.236	1.358	0.155	1.291	1.394	0.299	1.175	1.440	0.335	0.894	1.448	0.404	0.717	1.467	0.419	0.679	1.471	0.080	0.726	1.484	-0.018	0.428	1.499	0.119	0.049	1.577	0.160	0.039	1.457	0.222	0.719	1.494	0.197	0.411	1.546	0.168	0.272	1.596	0.158	0.261	1.560	0.134	1.226	1.448	0.202	1.368	1.382	0.181	1.262	1.397	0.409	0.575	1.494	0.357	0.647	1.462
1829	49.549	0.154	0.716	1.522	0.143	1.011	1.483	0.133	1.295	1.435	0.143	1.444	1.417	0.009	1.197	1.411	-0.014	1.031	1.291	0.129	1.235	1.358	0.156	1.290	1.394	0.298	1.174	1.439	0.373	0.922	1.435	0.455	0.753	1.452	0.474	0.717	1.455	0.079	0.725	1.486	-0.017	0.426	1.500	0.123	0.045	1.574	0.162	0.036	1.453	0.221	0.717	1.493	0.197	0.410	1.546	0.169	0.272	1.596	0.158	0.261	1.560	0.135	1.225	1.449	0.203	1.368	1.382	0.183	1.262	1.397	0.483	0.621	1.473	0.413	0.693	1.469
1830	49.566	0.154	0.716	1.522	0.143	1.011	1.483	0.133	1.295	1.435	0.143	1.444	1.417	0.009	1.197	1.411	-0.014	1.031	1.291	0.129	1.235	1.358	0.156	1.290	1.394	0.298	1.174	1.439	0.373	0.922	1.435	0.455	0.753	1.452	0.474	0.717	1.455	0.079	0.725	1.486	-0.017	0.426	1.500	0.123	0.045	1.574	0.162	0.036	1.453	0.221	0.717	1.493	0.197	0.410	1.546	0.169	0.272	1.596	0.158	0.261	1.560	0.135	1.225	1.449	0.203	1.368	1.382	0.183	1.262	1.397	0.483	0.621	1.473	0.413	0.693	1.469
1831	49.582	0.152	0.715	1.522	0.143	1.011	1.484	0.134	1.294	1.435	0.144	1.444	1.417	0.009	1.197	1.411	-0.014	1.030	1.292	0.129	1.235	1.359	0.158	1.289	1.395	0.298	1.173	1.438	0.427	0.951	1.424	0.530	0.797	1.433	0.552	0.770	1.435	0.077	0.725	1.487	-0.015	0.425	1.500	0.149	0.037	1.543	0.185	0.039	1.419	0.219	0.715	1.492	0.197	0.409	1.545	0.169	0.271	1.596	0.158	0.261	1.560	0.136	1.225	1.449	0.206	1.363	1.383	0.187	1.263	1.397	0.607	0.692	1.452	0.519	0.754	1.469
1832	49.599	0.152	0.715	1.522	0.143	1.011	1.484	0.134	1.294	1.435	0.144	1.444	1.417	0.009	1.197	1.411	-0.014	1.030	1.292	0.129	1.235	1.359	0.158	1.289	1.395	0.298	1.173	1.438	0.427	0.951	1.424	0.530	0.797	1.433	0.552	0.770	1.435	0.077	0.725	1.487	-0.015	0.425	1.500	0.149	0.037	1.543	0.185	0.039	1.419	0.219	0.715	1.492	0.197	0.409	1.545	0.169	0.271	1.596	0.158	0.261	1.560	0.136	1.225	1.449	0.206	1.363	1.383	0.187	1.263	1.397	0.607	0.692	1.452	0.519	0.754	1.469
1833	49.616	0.151	0.714	1.522	0.143	1.011	1.484	0.135	1.294	1.435	0.144	1.444	1.417	0.009	1.197	1.412	-0.013	1.029	1.294	0.130	1.235	1.359	0.159	1.287	1.395	0.300	1.172	1.436	0.491	0.986	1.409	0.624	0.852	1.416	0.650	0.838	1.414	0.076	0.724	1.487	-0.013	0.423	1.499	0.154	0.035	1.537	0.189	0.038	1.413	0.218	0.714	1.490	0.198	0.409	1.544	0.171	0.271	1.595	0.158	0.260	1.561	0.136	1.225	1.449	0.206	1.363	1.383	0.190	1.262	1.397	0.726	0.768	1.432	0.615	0.824	1.457
1834	49.632	0.151	0.714	1.522	0.143	1.011	1.484	0.135	1.294	1.435	0.144	1.444	1.417	0.009	1.197	1.412	-0.013	1.029	1.294	0.130	1.235	1.359	0.159	1.287	1.395	0.300	1.172	1.436	0.491	0.986	1.409	0.624	0.852	1.416	0.650	0.838	1.414	0.076	0.724	1.487	-0.013	0.423	1.499	0.154	0.035	1.537	0.189	0.038	1.413	0.218	0.714	1.490	0.198	0.409	1.544	0.171	0.271	1.595	0.158	0.260	1.561	0.136	1.225	1.449	0.206	1.363	1.383	0.190	1.262	1.397	0.726	0.768	1.432	0.615	0.824	1.457
1835	49.649	0.149	0.714	1.522	0.144	1.010	1.484	0.135	1.294	1.435	0.145	1.444	1.417	0.009	1.197	1.412	-0.014	1.028	1.295	0.130	1.234	1.360	0.160	1.286	1.395	0.302	1.172	1.434	0.542	1.031	1.396	0.712	0.915	1.392	0.746	0.903	1.399	0.074	0.724	1.488	-0.010	0.420	1.494	0.155	0.032	1.532	0.189	0.035	1.409	0.216	0.713	1.489	0.199	0.409	1.543	0.172	0.270	1.595	0.158	0.260	1.561	0.137	1.225	1.449	0.207	1.359	1.384	0.194	1.264	1.396	0.837	0.844	1.429	0.710	0.889	1.442
1836	49.666	0.149	0.714	1.522	0.144	1.010	1.484	0.135	1.294	1.435	0.145	1.444	1.417	0.009	1.197	1.412	-0.014	1.028	1.295	0.130	1.234	1.360	0.160	1.286	1.395	0.302	1.172	1.434	0.542	1.031	1.396	0.712	0.915	1.392	0.746	0.903	1.399	0.074	0.724	1.488	-0.010	0.420	1.494	0.155	0.032	1.532	0.189	0.035	1.409	0.216	0.713	1.489	0.199	0.409	1.543	0.172	0.270	1.595	0.158	0.260	1.561	0.137	1.225	1.449	0.207	1.359	1.384	0.194	1.264	1.396	0.837	0.844	1.429	0.710	0.889	1.442
1837	49.683	0.148	0.713	1.521	0.144	1.010	1.484	0.136	1.294	1.435	0.145	1.443	1.417	0.010	1.197	1.412	-0.016	1.028	1.297	0.130	1.234	1.361	0.160	1.285	1.395	0.308	1.172	1.431	0.579	1.086	1.384	0.755	0.994	1.380	0.790	0.985	1.384	0.073	0.724	1.488	-0.008	0.419	1.488	0.154	0.031	1.530	0.187	0.031	1.408	0.215	0.713	1.487	0.200	0.409	1.542	0.173	0.270	1.595	0.158	0.260	1.561	0.137	1.225	1.449	0.206	1.353	1.386	0.196	1.261	1.393	0.909	0.957	1.413	0.778	0.968	1.422
